<?xml version="1.0"?>
<!-- Generated by SVGo -->
<svg width="105.252mm" height="67.152mm"
     viewBox="0.000 0.000 105.252 67.152"
     xmlns="http://www.w3.org/2000/svg" 
     xmlns:xlink="http://www.w3.org/1999/xlink">
<polygon points="100.252,62.151 5.001,62.151 5.001,5.001 100.252,5.001" style="fill:none;stroke-width:0.050000mm;stroke:black"/>
<polygon points="14.669,45.626 14.669,59.626 28.669,59.626 28.669,45.626" style="fill:none;stroke-width:0.050000mm;stroke:black"/>
<polygon points="76.582,45.626 76.582,59.626 90.582,59.626 90.582,45.626" style="fill:none;stroke-width:0.050000mm;stroke:black"/>
<polygon points="7.526,26.576 7.526,40.576 21.526,40.576 21.526,26.576" style="fill:none;stroke-width:0.050000mm;stroke:black"/>
<polygon points="26.576,26.576 26.576,40.576 40.576,40.576 40.576,26.576" style="fill:none;stroke-width:0.050000mm;stroke:black"/>
<polygon points="45.626,26.576 45.626,40.576 59.626,40.576 59.626,26.576" style="fill:none;stroke-width:0.050000mm;stroke:black"/>
<polygon points="64.676,26.576 64.676,40.576 78.676,40.576 78.676,26.576" style="fill:none;stroke-width:0.050000mm;stroke:black"/>
<polygon points="83.726,26.576 83.726,40.576 97.726,40.576 97.726,26.576" style="fill:none;stroke-width:0.050000mm;stroke:black"/>
<polygon points="7.526,7.526 7.526,21.526 21.526,21.526 21.526,7.526" style="fill:none;stroke-width:0.050000mm;stroke:black"/>
<polygon points="26.576,7.526 26.576,21.526 40.576,21.526 40.576,7.526" style="fill:none;stroke-width:0.050000mm;stroke:black"/>
<polygon points="45.626,7.526 45.626,21.526 59.626,21.526 59.626,7.526" style="fill:none;stroke-width:0.050000mm;stroke:black"/>
<polygon points="64.676,7.526 64.676,21.526 78.676,21.526 78.676,7.526" style="fill:none;stroke-width:0.050000mm;stroke:black"/>
<polygon points="83.726,7.526 83.726,21.526 97.726,21.526 97.726,7.526" style="fill:none;stroke-width:0.050000mm;stroke:black"/>
</svg>
